<svg width="1600" height="900" viewBox="0 0 1600 900" xmlns="http://www.w3.org/2000/svg" role="img" aria-label="Clinical strategy scientific visualization">
  <defs>
    <linearGradient id="bg" x1="0" y1="0" x2="1" y2="1">
      <stop offset="0" stop-color="#f7fbff"/>
      <stop offset="0.52" stop-color="#eaf7f2"/>
      <stop offset="1" stop-color="#f9fbff"/>
    </linearGradient>
    <linearGradient id="blue" x1="0" y1="0" x2="1" y2="1">
      <stop offset="0" stop-color="#4DAFF7"/>
      <stop offset="1" stop-color="#1B7ED8"/>
    </linearGradient>
    <filter id="soft" x="-20%" y="-20%" width="140%" height="140%">
      <feDropShadow dx="0" dy="18" stdDeviation="28" flood-color="#1B2B4B" flood-opacity="0.14"/>
    </filter>
  </defs>
  <rect width="1600" height="900" fill="url(#bg)"/>
  <g opacity="0.38" stroke="#1B2B4B" stroke-width="1">
    <path d="M120 705 C330 586 466 598 660 464 S1040 270 1460 342" fill="none"/>
    <path d="M94 520 C320 430 478 436 708 354 S1084 208 1505 264" fill="none"/>
    <path d="M206 804 C432 700 586 710 792 600 S1160 424 1484 472" fill="none"/>
  </g>
  <g filter="url(#soft)">
    <rect x="210" y="185" width="250" height="390" rx="32" fill="white" opacity="0.92"/>
    <rect x="256" y="246" width="158" height="18" rx="9" fill="#4DAFF7"/>
    <rect x="256" y="300" width="122" height="18" rx="9" fill="#3DBE7A"/>
    <rect x="256" y="354" width="172" height="18" rx="9" fill="#FFD24D"/>
    <rect x="256" y="410" width="132" height="18" rx="9" fill="#1B2B4B" opacity="0.78"/>
    <path d="M288 493 L332 456 L376 492 L421 438" fill="none" stroke="#4DAFF7" stroke-width="14" stroke-linecap="round"/>
  </g>
  <g fill="none" stroke-linecap="round" stroke-width="16">
    <path d="M690 610 C778 456 862 456 950 610 S1122 764 1210 610" stroke="#4DAFF7"/>
    <path d="M690 690 C778 536 862 536 950 690 S1122 844 1210 690" stroke="#3DBE7A"/>
    <path d="M748 560 L836 734 M902 531 L1012 760 M1080 550 L1170 724" stroke="#FFD24D" stroke-width="8"/>
  </g>
  <g>
    <circle cx="1290" cy="258" r="80" fill="#3DBE7A" opacity="0.16"/>
    <circle cx="1290" cy="258" r="48" fill="#3DBE7A" opacity="0.9"/>
    <circle cx="1376" cy="344" r="28" fill="#FFD24D"/>
    <circle cx="1210" cy="340" r="22" fill="#4DAFF7"/>
    <path d="M1290 258 L1376 344 M1290 258 L1210 340" stroke="#1B2B4B" stroke-width="5" opacity="0.42"/>
  </g>
  <g transform="translate(1010 486)" opacity="0.94">
    <rect x="0" y="0" width="360" height="210" rx="26" fill="#ffffff" opacity="0.82"/>
    <path d="M52 158 C92 74 136 74 176 158 S260 242 300 158" fill="none" stroke="#4DAFF7" stroke-width="10" stroke-linecap="round"/>
    <path d="M52 56 C92 140 136 140 176 56 S260 -28 300 56" fill="none" stroke="#3DBE7A" stroke-width="10" stroke-linecap="round"/>
    <path d="M80 108 H132 M154 108 H206 M228 108 H280" stroke="#FFD24D" stroke-width="6" stroke-linecap="round"/>
    <rect x="58" y="178" width="70" height="12" rx="6" fill="#1B2B4B" opacity="0.7"/>
    <rect x="146" y="178" width="54" height="12" rx="6" fill="#4DAFF7"/>
    <rect x="218" y="178" width="86" height="12" rx="6" fill="#3DBE7A"/>
  </g>
</svg>
