<svg width="1600" height="900" viewBox="0 0 1600 900" xmlns="http://www.w3.org/2000/svg" role="img" aria-label="CRO data visualization">
  <defs>
    <linearGradient id="bg4" x1="0" y1="0" x2="1" y2="1">
      <stop offset="0" stop-color="#f8fbff"/>
      <stop offset="0.5" stop-color="#eefaf4"/>
      <stop offset="1" stop-color="#fff8dc"/>
    </linearGradient>
  </defs>
  <rect width="1600" height="900" fill="url(#bg4)"/>
  <g transform="translate(190 170)">
    <rect x="0" y="0" width="1220" height="560" rx="36" fill="white" opacity="0.88"/>
    <g stroke="#E6EBF1" stroke-width="2">
      <path d="M80 100 H1140 M80 188 H1140 M80 276 H1140 M80 364 H1140 M80 452 H1140"/>
      <path d="M208 74 V492 M356 74 V492 M504 74 V492 M652 74 V492 M800 74 V492 M948 74 V492 M1096 74 V492"/>
    </g>
    <path d="M96 426 C202 370 278 394 356 314 S520 206 650 246 S838 374 962 246 S1086 150 1130 178" fill="none" stroke="#4DAFF7" stroke-width="14" stroke-linecap="round"/>
    <path d="M96 458 C226 438 306 354 410 388 S586 492 706 380 S866 250 1010 308 S1102 368 1130 332" fill="none" stroke="#3DBE7A" stroke-width="14" stroke-linecap="round"/>
    <g fill="#FFD24D">
      <circle cx="356" cy="314" r="16"/>
      <circle cx="650" cy="246" r="16"/>
      <circle cx="962" cy="246" r="16"/>
      <circle cx="1010" cy="308" r="16"/>
    </g>
    <rect x="84" y="520" width="210" height="16" rx="8" fill="#4DAFF7"/>
    <rect x="324" y="520" width="168" height="16" rx="8" fill="#3DBE7A"/>
    <rect x="522" y="520" width="118" height="16" rx="8" fill="#FFD24D"/>
  </g>
  <g fill="#1B2B4B" opacity="0.08">
    <circle cx="132" cy="118" r="60"/>
    <circle cx="1484" cy="754" r="88"/>
  </g>
  <g transform="translate(1080 95)" opacity="0.92">
    <rect x="0" y="0" width="300" height="220" rx="24" fill="#ffffff" opacity="0.78"/>
    <circle cx="78" cy="72" r="34" fill="#4DAFF7"/>
    <circle cx="188" cy="70" r="34" fill="#3DBE7A"/>
    <circle cx="134" cy="152" r="34" fill="#FFD24D"/>
    <path d="M78 72 L188 70 L134 152 Z" fill="none" stroke="#1B2B4B" stroke-width="5" opacity="0.28"/>
    <rect x="204" y="142" width="56" height="12" rx="6" fill="#4DAFF7"/>
    <rect x="204" y="164" width="76" height="12" rx="6" fill="#3DBE7A"/>
    <rect x="204" y="186" width="44" height="12" rx="6" fill="#FFD24D"/>
  </g>
</svg>
